<svg xmlns="http://www.w3.org/2000/svg" version="1.1" width="345" height="320" viewBox="0 0 345 320"><defs/><path fill="none" stroke="#000000" d="M 60,290 L 340,290" style="stroke-width: 1px;opacity: 0.3" stroke-width="1" opacity="0.3"/><path fill="none" stroke="#000000" d="M 60,271.333 L 340,271.333" style="stroke-width: 1px;opacity: 0.3" stroke-width="1" opacity="0.3"/><path fill="none" stroke="#000000" d="M 60,252.667 L 340,252.667" style="stroke-width: 1px;opacity: 0.3" stroke-width="1" opacity="0.3"/><path fill="none" stroke="#000000" d="M 60,234 L 340,234" style="stroke-width: 1px;opacity: 0.3" stroke-width="1" opacity="0.3"/><path fill="none" stroke="#000000" d="M 60,215.333 L 340,215.333" style="stroke-width: 1px;opacity: 0.3" stroke-width="1" opacity="0.3"/><path fill="none" stroke="#000000" d="M 60,196.667 L 340,196.667" style="stroke-width: 1px;opacity: 0.3" stroke-width="1" opacity="0.3"/><path fill="none" stroke="#000000" d="M 60,178 L 340,178" style="stroke-width: 1px;opacity: 0.3" stroke-width="1" opacity="0.3"/><path fill="none" stroke="#000000" d="M 60,159.333 L 340,159.333" style="stroke-width: 1px;opacity: 0.3" stroke-width="1" opacity="0.3"/><path fill="none" stroke="#000000" d="M 60,140.667 L 340,140.667" style="stroke-width: 1px;opacity: 0.3" stroke-width="1" opacity="0.3"/><path fill="none" stroke="#000000" d="M 60,122 L 340,122" style="stroke-width: 1px;opacity: 0.3" stroke-width="1" opacity="0.3"/><path fill="none" stroke="#000000" d="M 60,103.333 L 340,103.333" style="stroke-width: 1px;opacity: 0.3" stroke-width="1" opacity="0.3"/><path fill="none" stroke="#000000" d="M 60,84.6667 L 340,84.6667" style="stroke-width: 1px;opacity: 0.3" stroke-width="1" opacity="0.3"/><path fill="none" stroke="#000000" d="M 60,66 L 340,66" style="stroke-width: 1px;opacity: 0.3" stroke-width="1" opacity="0.3"/><path fill="none" stroke="#000000" d="M 60,47.3333 L 340,47.3333" style="stroke-width: 1px;opacity: 0.3" stroke-width="1" opacity="0.3"/><path fill="none" stroke="#000000" d="M 60,28.6667 L 340,28.6667" style="stroke-width: 1px;opacity: 0.3" stroke-width="1" opacity="0.3"/><path fill="none" stroke="#000000" d="M 60,10 L 340,10" style="stroke-width: 1px;opacity: 0.3" stroke-width="1" opacity="0.3"/><path fill="none" stroke="#000000" d="M 115.152,296 L 115.152,290" style="stroke-width: 2px;opacity: 1" stroke-width="2" opacity="1"/><path fill="#11accd" stroke="none" d="M 85.4545,290 L 85.4545,84.6667 L 144.848,84.6667 L 144.848,290" style="stroke-width: 2px;opacity: 1" stroke-width="2" opacity="1"/><path fill="#11accd" stroke="#000000" d="M 200,296 L 200,290" style="stroke-width: 2px;opacity: 1" stroke-width="2" opacity="1"/><path fill="#11accd" stroke="none" d="M 170.303,290 L 170.303,215.333 L 229.697,215.333 L 229.697,290" style="stroke-width: 2px;opacity: 1" stroke-width="2" opacity="1"/><path fill="#11accd" stroke="#000000" d="M 284.848,296 L 284.848,290" style="stroke-width: 2px;opacity: 1" stroke-width="2" opacity="1"/><path fill="#11accd" stroke="none" d="M 255.152,290 L 255.152,28.6667 L 314.545,28.6667 L 314.545,290" style="stroke-width: 2px;opacity: 1" stroke-width="2" opacity="1"/><path fill="#11accd" stroke="#000000" d="M 60,290 L 340,290" style="stroke-width: 2px;opacity: 1" stroke-width="2" opacity="1"/><path fill="#11accd" stroke="#000000" d="M 60,290 L 60,10" style="stroke-width: 2px;opacity: 1" stroke-width="2" opacity="1"/></svg>