<?xml version="1.0" encoding="UTF-8" standalone="no"?>
<svg width="670px" height="273px" viewBox="0 0 670 273" version="1.1" xmlns="http://www.w3.org/2000/svg" xmlns:xlink="http://www.w3.org/1999/xlink">
    <!-- Generator: Sketch 39.1 (31720) - http://www.bohemiancoding.com/sketch -->
    <title>graph-illustration</title>
    <desc>Created with Sketch.</desc>
    <defs>
        <linearGradient x1="0%" y1="0%" x2="100%" y2="100%" id="linearGradient-1">
            <stop stop-color="#3DD4FF" offset="0%"></stop>
            <stop stop-color="#56A3FF" offset="48.8879145%"></stop>
            <stop stop-color="#5072FF" stop-opacity="0" offset="94.7624362%"></stop>
        </linearGradient>
        <linearGradient x1="0%" y1="35.702895%" x2="98.2202647%" y2="49.1101323%" id="linearGradient-2">
            <stop stop-color="#1CDE99" offset="0%"></stop>
            <stop stop-color="#71E37C" offset="59.3227877%"></stop>
            <stop stop-color="#AAE767" stop-opacity="0" offset="100%"></stop>
        </linearGradient>
        <linearGradient x1="76.2160842%" y1="4347.07031%" x2="100%" y2="4347.07031%" id="linearGradient-3">
            <stop stop-color="#FFFFFF" offset="0%"></stop>
            <stop stop-color="#FFFFFF" stop-opacity="0" offset="100%"></stop>
        </linearGradient>
    </defs>
    <g id="Symbols" stroke="none" stroke-width="1" fill="none" fill-rule="evenodd">
        <g id="Use-Results---Header" transform="translate(0.000000, -146.000000)">
            <g id="Use-Results">
                <g id="graph-illustration" transform="translate(0.000000, 146.000000)">
                    <path d="M668.510271,272.907105 C671.752302,277.377684 668.510271,119.55139 669.700212,1.85979396 C630.185208,2.08469674 631.91717,171.728925 555.710832,171.728925 C479.504494,171.728925 467.380759,51.3326395 427.545627,51.3326395 C387.710496,51.3326395 391.174421,105.736245 365.194987,105.736245 C339.215554,105.736245 339.215554,-9.34746595e-16 299.380423,0 C259.545291,-9.34746595e-16 247.421556,152.80983 209.318387,152.80983 C171.215218,152.80983 160.823444,114.88198 120.988313,114.88198 C81.1531817,114.88198 50.768926,229.361174 0,228.685071 L0,272.907105" id="Graph" fill="url(#linearGradient-1)" opacity="0.300000012"></path>
                    <path d="M542.801336,272.9248 C545.409934,276.54384 542.801336,148.779696 543.758785,53.5055475 C511.96428,53.6876117 513.357849,191.018654 452.040817,191.018654 C390.723785,191.018654 380.968802,93.5549939 348.916717,93.5549939 C316.864632,93.5549939 319.65177,137.596008 298.748236,137.596008 C277.844702,137.596008 277.844702,52 245.792617,52 C213.740532,52 203.98555,175.703196 173.327034,175.703196 C142.668517,175.703196 134.307104,144.999698 102.255019,144.999698 C70.2029337,144.999698 41.849619,221.504404 1,220.957082 L1,272.9248" id="Graph" fill="url(#linearGradient-2)" opacity="0.699999988"></path>
                    <path d="M11,38.5 C11.2761424,38.5 11.5,38.2761424 11.5,38 C11.5,37.7238576 11.2761424,37.5 11,37.5 L1,37.5 C0.723857625,37.5 0.5,37.7238576 0.5,38 C0.5,38.2761424 0.723857625,38.5 1,38.5 L11,38.5 Z M31,38.5 C31.2761424,38.5 31.5,38.2761424 31.5,38 C31.5,37.7238576 31.2761424,37.5 31,37.5 L21,37.5 C20.7238576,37.5 20.5,37.7238576 20.5,38 C20.5,38.2761424 20.7238576,38.5 21,38.5 L31,38.5 Z M51,38.5 C51.2761424,38.5 51.5,38.2761424 51.5,38 C51.5,37.7238576 51.2761424,37.5 51,37.5 L41,37.5 C40.7238576,37.5 40.5,37.7238576 40.5,38 C40.5,38.2761424 40.7238576,38.5 41,38.5 L51,38.5 Z M71,38.5 C71.2761424,38.5 71.5,38.2761424 71.5,38 C71.5,37.7238576 71.2761424,37.5 71,37.5 L61,37.5 C60.7238576,37.5 60.5,37.7238576 60.5,38 C60.5,38.2761424 60.7238576,38.5 61,38.5 L71,38.5 Z M91,38.5 C91.2761424,38.5 91.5,38.2761424 91.5,38 C91.5,37.7238576 91.2761424,37.5 91,37.5 L81,37.5 C80.7238576,37.5 80.5,37.7238576 80.5,38 C80.5,38.2761424 80.7238576,38.5 81,38.5 L91,38.5 Z M111,38.5 C111.276142,38.5 111.5,38.2761424 111.5,38 C111.5,37.7238576 111.276142,37.5 111,37.5 L101,37.5 C100.723858,37.5 100.5,37.7238576 100.5,38 C100.5,38.2761424 100.723858,38.5 101,38.5 L111,38.5 Z M131,38.5 C131.276142,38.5 131.5,38.2761424 131.5,38 C131.5,37.7238576 131.276142,37.5 131,37.5 L121,37.5 C120.723858,37.5 120.5,37.7238576 120.5,38 C120.5,38.2761424 120.723858,38.5 121,38.5 L131,38.5 Z M151,38.5 C151.276142,38.5 151.5,38.2761424 151.5,38 C151.5,37.7238576 151.276142,37.5 151,37.5 L141,37.5 C140.723858,37.5 140.5,37.7238576 140.5,38 C140.5,38.2761424 140.723858,38.5 141,38.5 L151,38.5 Z M171,38.5 C171.276142,38.5 171.5,38.2761424 171.5,38 C171.5,37.7238576 171.276142,37.5 171,37.5 L161,37.5 C160.723858,37.5 160.5,37.7238576 160.5,38 C160.5,38.2761424 160.723858,38.5 161,38.5 L171,38.5 Z M191,38.5 C191.276142,38.5 191.5,38.2761424 191.5,38 C191.5,37.7238576 191.276142,37.5 191,37.5 L181,37.5 C180.723858,37.5 180.5,37.7238576 180.5,38 C180.5,38.2761424 180.723858,38.5 181,38.5 L191,38.5 Z M211,38.5 C211.276142,38.5 211.5,38.2761424 211.5,38 C211.5,37.7238576 211.276142,37.5 211,37.5 L201,37.5 C200.723858,37.5 200.5,37.7238576 200.5,38 C200.5,38.2761424 200.723858,38.5 201,38.5 L211,38.5 Z M231,38.5 C231.276142,38.5 231.5,38.2761424 231.5,38 C231.5,37.7238576 231.276142,37.5 231,37.5 L221,37.5 C220.723858,37.5 220.5,37.7238576 220.5,38 C220.5,38.2761424 220.723858,38.5 221,38.5 L231,38.5 Z M251,38.5 C251.276142,38.5 251.5,38.2761424 251.5,38 C251.5,37.7238576 251.276142,37.5 251,37.5 L241,37.5 C240.723858,37.5 240.5,37.7238576 240.5,38 C240.5,38.2761424 240.723858,38.5 241,38.5 L251,38.5 Z M271,38.5 C271.276142,38.5 271.5,38.2761424 271.5,38 C271.5,37.7238576 271.276142,37.5 271,37.5 L261,37.5 C260.723858,37.5 260.5,37.7238576 260.5,38 C260.5,38.2761424 260.723858,38.5 261,38.5 L271,38.5 Z M291,38.5 C291.276142,38.5 291.5,38.2761424 291.5,38 C291.5,37.7238576 291.276142,37.5 291,37.5 L281,37.5 C280.723858,37.5 280.5,37.7238576 280.5,38 C280.5,38.2761424 280.723858,38.5 281,38.5 L291,38.5 Z M311,38.5 C311.276142,38.5 311.5,38.2761424 311.5,38 C311.5,37.7238576 311.276142,37.5 311,37.5 L301,37.5 C300.723858,37.5 300.5,37.7238576 300.5,38 C300.5,38.2761424 300.723858,38.5 301,38.5 L311,38.5 Z M331,38.5 C331.276142,38.5 331.5,38.2761424 331.5,38 C331.5,37.7238576 331.276142,37.5 331,37.5 L321,37.5 C320.723858,37.5 320.5,37.7238576 320.5,38 C320.5,38.2761424 320.723858,38.5 321,38.5 L331,38.5 Z M351,38.5 C351.276142,38.5 351.5,38.2761424 351.5,38 C351.5,37.7238576 351.276142,37.5 351,37.5 L341,37.5 C340.723858,37.5 340.5,37.7238576 340.5,38 C340.5,38.2761424 340.723858,38.5 341,38.5 L351,38.5 Z M371,38.5 C371.276142,38.5 371.5,38.2761424 371.5,38 C371.5,37.7238576 371.276142,37.5 371,37.5 L361,37.5 C360.723858,37.5 360.5,37.7238576 360.5,38 C360.5,38.2761424 360.723858,38.5 361,38.5 L371,38.5 Z M391,38.5 C391.276142,38.5 391.5,38.2761424 391.5,38 C391.5,37.7238576 391.276142,37.5 391,37.5 L381,37.5 C380.723858,37.5 380.5,37.7238576 380.5,38 C380.5,38.2761424 380.723858,38.5 381,38.5 L391,38.5 Z M411,38.5 C411.276142,38.5 411.5,38.2761424 411.5,38 C411.5,37.7238576 411.276142,37.5 411,37.5 L401,37.5 C400.723858,37.5 400.5,37.7238576 400.5,38 C400.5,38.2761424 400.723858,38.5 401,38.5 L411,38.5 Z M431,38.5 C431.276142,38.5 431.5,38.2761424 431.5,38 C431.5,37.7238576 431.276142,37.5 431,37.5 L421,37.5 C420.723858,37.5 420.5,37.7238576 420.5,38 C420.5,38.2761424 420.723858,38.5 421,38.5 L431,38.5 Z M451,38.5 C451.276142,38.5 451.5,38.2761424 451.5,38 C451.5,37.7238576 451.276142,37.5 451,37.5 L441,37.5 C440.723858,37.5 440.5,37.7238576 440.5,38 C440.5,38.2761424 440.723858,38.5 441,38.5 L451,38.5 Z M471,38.5 C471.276142,38.5 471.5,38.2761424 471.5,38 C471.5,37.7238576 471.276142,37.5 471,37.5 L461,37.5 C460.723858,37.5 460.5,37.7238576 460.5,38 C460.5,38.2761424 460.723858,38.5 461,38.5 L471,38.5 Z M491,38.5 C491.276142,38.5 491.5,38.2761424 491.5,38 C491.5,37.7238576 491.276142,37.5 491,37.5 L481,37.5 C480.723858,37.5 480.5,37.7238576 480.5,38 C480.5,38.2761424 480.723858,38.5 481,38.5 L491,38.5 Z M511,38.5 C511.276142,38.5 511.5,38.2761424 511.5,38 C511.5,37.7238576 511.276142,37.5 511,37.5 L501,37.5 C500.723858,37.5 500.5,37.7238576 500.5,38 C500.5,38.2761424 500.723858,38.5 501,38.5 L511,38.5 Z M531,38.5 C531.276142,38.5 531.5,38.2761424 531.5,38 C531.5,37.7238576 531.276142,37.5 531,37.5 L521,37.5 C520.723858,37.5 520.5,37.7238576 520.5,38 C520.5,38.2761424 520.723858,38.5 521,38.5 L531,38.5 Z M551,38.5 C551.276142,38.5 551.5,38.2761424 551.5,38 C551.5,37.7238576 551.276142,37.5 551,37.5 L541,37.5 C540.723858,37.5 540.5,37.7238576 540.5,38 C540.5,38.2761424 540.723858,38.5 541,38.5 L551,38.5 Z M571,38.5 C571.276142,38.5 571.5,38.2761424 571.5,38 C571.5,37.7238576 571.276142,37.5 571,37.5 L561,37.5 C560.723858,37.5 560.5,37.7238576 560.5,38 C560.5,38.2761424 560.723858,38.5 561,38.5 L571,38.5 Z M591,38.5 C591.276142,38.5 591.5,38.2761424 591.5,38 C591.5,37.7238576 591.276142,37.5 591,37.5 L581,37.5 C580.723858,37.5 580.5,37.7238576 580.5,38 C580.5,38.2761424 580.723858,38.5 581,38.5 L591,38.5 Z M11,84.5 C11.2761424,84.5 11.5,84.2761424 11.5,84 C11.5,83.7238576 11.2761424,83.5 11,83.5 L1,83.5 C0.723857625,83.5 0.5,83.7238576 0.5,84 C0.5,84.2761424 0.723857625,84.5 1,84.5 L11,84.5 Z M31,84.5 C31.2761424,84.5 31.5,84.2761424 31.5,84 C31.5,83.7238576 31.2761424,83.5 31,83.5 L21,83.5 C20.7238576,83.5 20.5,83.7238576 20.5,84 C20.5,84.2761424 20.7238576,84.5 21,84.5 L31,84.5 Z M51,84.5 C51.2761424,84.5 51.5,84.2761424 51.5,84 C51.5,83.7238576 51.2761424,83.5 51,83.5 L41,83.5 C40.7238576,83.5 40.5,83.7238576 40.5,84 C40.5,84.2761424 40.7238576,84.5 41,84.5 L51,84.5 Z M71,84.5 C71.2761424,84.5 71.5,84.2761424 71.5,84 C71.5,83.7238576 71.2761424,83.5 71,83.5 L61,83.5 C60.7238576,83.5 60.5,83.7238576 60.5,84 C60.5,84.2761424 60.7238576,84.5 61,84.5 L71,84.5 Z M91,84.5 C91.2761424,84.5 91.5,84.2761424 91.5,84 C91.5,83.7238576 91.2761424,83.5 91,83.5 L81,83.5 C80.7238576,83.5 80.5,83.7238576 80.5,84 C80.5,84.2761424 80.7238576,84.5 81,84.5 L91,84.5 Z M111,84.5 C111.276142,84.5 111.5,84.2761424 111.5,84 C111.5,83.7238576 111.276142,83.5 111,83.5 L101,83.5 C100.723858,83.5 100.5,83.7238576 100.5,84 C100.5,84.2761424 100.723858,84.5 101,84.5 L111,84.5 Z M131,84.5 C131.276142,84.5 131.5,84.2761424 131.5,84 C131.5,83.7238576 131.276142,83.5 131,83.5 L121,83.5 C120.723858,83.5 120.5,83.7238576 120.5,84 C120.5,84.2761424 120.723858,84.5 121,84.5 L131,84.5 Z M151,84.5 C151.276142,84.5 151.5,84.2761424 151.5,84 C151.5,83.7238576 151.276142,83.5 151,83.5 L141,83.5 C140.723858,83.5 140.5,83.7238576 140.5,84 C140.5,84.2761424 140.723858,84.5 141,84.5 L151,84.5 Z M171,84.5 C171.276142,84.5 171.5,84.2761424 171.5,84 C171.5,83.7238576 171.276142,83.5 171,83.5 L161,83.5 C160.723858,83.5 160.5,83.7238576 160.5,84 C160.5,84.2761424 160.723858,84.5 161,84.5 L171,84.5 Z M191,84.5 C191.276142,84.5 191.5,84.2761424 191.5,84 C191.5,83.7238576 191.276142,83.5 191,83.5 L181,83.5 C180.723858,83.5 180.5,83.7238576 180.5,84 C180.5,84.2761424 180.723858,84.5 181,84.5 L191,84.5 Z M211,84.5 C211.276142,84.5 211.5,84.2761424 211.5,84 C211.5,83.7238576 211.276142,83.5 211,83.5 L201,83.5 C200.723858,83.5 200.5,83.7238576 200.5,84 C200.5,84.2761424 200.723858,84.5 201,84.5 L211,84.5 Z M231,84.5 C231.276142,84.5 231.5,84.2761424 231.5,84 C231.5,83.7238576 231.276142,83.5 231,83.5 L221,83.5 C220.723858,83.5 220.5,83.7238576 220.5,84 C220.5,84.2761424 220.723858,84.5 221,84.5 L231,84.5 Z M251,84.5 C251.276142,84.5 251.5,84.2761424 251.5,84 C251.5,83.7238576 251.276142,83.5 251,83.5 L241,83.5 C240.723858,83.5 240.5,83.7238576 240.5,84 C240.5,84.2761424 240.723858,84.5 241,84.5 L251,84.5 Z M271,84.5 C271.276142,84.5 271.5,84.2761424 271.5,84 C271.5,83.7238576 271.276142,83.5 271,83.5 L261,83.5 C260.723858,83.5 260.5,83.7238576 260.5,84 C260.5,84.2761424 260.723858,84.5 261,84.5 L271,84.5 Z M291,84.5 C291.276142,84.5 291.5,84.2761424 291.5,84 C291.5,83.7238576 291.276142,83.5 291,83.5 L281,83.5 C280.723858,83.5 280.5,83.7238576 280.5,84 C280.5,84.2761424 280.723858,84.5 281,84.5 L291,84.5 Z M311,84.5 C311.276142,84.5 311.5,84.2761424 311.5,84 C311.5,83.7238576 311.276142,83.5 311,83.5 L301,83.5 C300.723858,83.5 300.5,83.7238576 300.5,84 C300.5,84.2761424 300.723858,84.5 301,84.5 L311,84.5 Z M331,84.5 C331.276142,84.5 331.5,84.2761424 331.5,84 C331.5,83.7238576 331.276142,83.5 331,83.5 L321,83.5 C320.723858,83.5 320.5,83.7238576 320.5,84 C320.5,84.2761424 320.723858,84.5 321,84.5 L331,84.5 Z M351,84.5 C351.276142,84.5 351.5,84.2761424 351.5,84 C351.5,83.7238576 351.276142,83.5 351,83.5 L341,83.5 C340.723858,83.5 340.5,83.7238576 340.5,84 C340.5,84.2761424 340.723858,84.5 341,84.5 L351,84.5 Z M371,84.5 C371.276142,84.5 371.5,84.2761424 371.5,84 C371.5,83.7238576 371.276142,83.5 371,83.5 L361,83.5 C360.723858,83.5 360.5,83.7238576 360.5,84 C360.5,84.2761424 360.723858,84.5 361,84.5 L371,84.5 Z M391,84.5 C391.276142,84.5 391.5,84.2761424 391.5,84 C391.5,83.7238576 391.276142,83.5 391,83.5 L381,83.5 C380.723858,83.5 380.5,83.7238576 380.5,84 C380.5,84.2761424 380.723858,84.5 381,84.5 L391,84.5 Z M411,84.5 C411.276142,84.5 411.5,84.2761424 411.5,84 C411.5,83.7238576 411.276142,83.5 411,83.5 L401,83.5 C400.723858,83.5 400.5,83.7238576 400.5,84 C400.5,84.2761424 400.723858,84.5 401,84.5 L411,84.5 Z M431,84.5 C431.276142,84.5 431.5,84.2761424 431.5,84 C431.5,83.7238576 431.276142,83.5 431,83.5 L421,83.5 C420.723858,83.5 420.5,83.7238576 420.5,84 C420.5,84.2761424 420.723858,84.5 421,84.5 L431,84.5 Z M451,84.5 C451.276142,84.5 451.5,84.2761424 451.5,84 C451.5,83.7238576 451.276142,83.5 451,83.5 L441,83.5 C440.723858,83.5 440.5,83.7238576 440.5,84 C440.5,84.2761424 440.723858,84.5 441,84.5 L451,84.5 Z M471,84.5 C471.276142,84.5 471.5,84.2761424 471.5,84 C471.5,83.7238576 471.276142,83.5 471,83.5 L461,83.5 C460.723858,83.5 460.5,83.7238576 460.5,84 C460.5,84.2761424 460.723858,84.5 461,84.5 L471,84.5 Z M491,84.5 C491.276142,84.5 491.5,84.2761424 491.5,84 C491.5,83.7238576 491.276142,83.5 491,83.5 L481,83.5 C480.723858,83.5 480.5,83.7238576 480.5,84 C480.5,84.2761424 480.723858,84.5 481,84.5 L491,84.5 Z M511,84.5 C511.276142,84.5 511.5,84.2761424 511.5,84 C511.5,83.7238576 511.276142,83.5 511,83.5 L501,83.5 C500.723858,83.5 500.5,83.7238576 500.5,84 C500.5,84.2761424 500.723858,84.5 501,84.5 L511,84.5 Z M531,84.5 C531.276142,84.5 531.5,84.2761424 531.5,84 C531.5,83.7238576 531.276142,83.5 531,83.5 L521,83.5 C520.723858,83.5 520.5,83.7238576 520.5,84 C520.5,84.2761424 520.723858,84.5 521,84.5 L531,84.5 Z M551,84.5 C551.276142,84.5 551.5,84.2761424 551.5,84 C551.5,83.7238576 551.276142,83.5 551,83.5 L541,83.5 C540.723858,83.5 540.5,83.7238576 540.5,84 C540.5,84.2761424 540.723858,84.5 541,84.5 L551,84.5 Z M571,84.5 C571.276142,84.5 571.5,84.2761424 571.5,84 C571.5,83.7238576 571.276142,83.5 571,83.5 L561,83.5 C560.723858,83.5 560.5,83.7238576 560.5,84 C560.5,84.2761424 560.723858,84.5 561,84.5 L571,84.5 Z M591,84.5 C591.276142,84.5 591.5,84.2761424 591.5,84 C591.5,83.7238576 591.276142,83.5 591,83.5 L581,83.5 C580.723858,83.5 580.5,83.7238576 580.5,84 C580.5,84.2761424 580.723858,84.5 581,84.5 L591,84.5 Z M11,130.5 C11.2761424,130.5 11.5,130.276142 11.5,130 C11.5,129.723858 11.2761424,129.5 11,129.5 L1,129.5 C0.723857625,129.5 0.5,129.723858 0.5,130 C0.5,130.276142 0.723857625,130.5 1,130.5 L11,130.5 Z M31,130.5 C31.2761424,130.5 31.5,130.276142 31.5,130 C31.5,129.723858 31.2761424,129.5 31,129.5 L21,129.5 C20.7238576,129.5 20.5,129.723858 20.5,130 C20.5,130.276142 20.7238576,130.5 21,130.5 L31,130.5 Z M51,130.5 C51.2761424,130.5 51.5,130.276142 51.5,130 C51.5,129.723858 51.2761424,129.5 51,129.5 L41,129.5 C40.7238576,129.5 40.5,129.723858 40.5,130 C40.5,130.276142 40.7238576,130.5 41,130.5 L51,130.5 Z M71,130.5 C71.2761424,130.5 71.5,130.276142 71.5,130 C71.5,129.723858 71.2761424,129.5 71,129.5 L61,129.5 C60.7238576,129.5 60.5,129.723858 60.5,130 C60.5,130.276142 60.7238576,130.5 61,130.5 L71,130.5 Z M91,130.5 C91.2761424,130.5 91.5,130.276142 91.5,130 C91.5,129.723858 91.2761424,129.5 91,129.5 L81,129.5 C80.7238576,129.5 80.5,129.723858 80.5,130 C80.5,130.276142 80.7238576,130.5 81,130.5 L91,130.5 Z M111,130.5 C111.276142,130.5 111.5,130.276142 111.5,130 C111.5,129.723858 111.276142,129.5 111,129.5 L101,129.5 C100.723858,129.5 100.5,129.723858 100.5,130 C100.5,130.276142 100.723858,130.5 101,130.5 L111,130.5 Z M131,130.5 C131.276142,130.5 131.5,130.276142 131.5,130 C131.5,129.723858 131.276142,129.5 131,129.5 L121,129.5 C120.723858,129.5 120.5,129.723858 120.5,130 C120.5,130.276142 120.723858,130.5 121,130.5 L131,130.5 Z M151,130.5 C151.276142,130.5 151.5,130.276142 151.5,130 C151.5,129.723858 151.276142,129.5 151,129.5 L141,129.5 C140.723858,129.5 140.5,129.723858 140.5,130 C140.5,130.276142 140.723858,130.5 141,130.5 L151,130.5 Z M171,130.5 C171.276142,130.5 171.5,130.276142 171.5,130 C171.5,129.723858 171.276142,129.5 171,129.5 L161,129.5 C160.723858,129.5 160.5,129.723858 160.5,130 C160.5,130.276142 160.723858,130.5 161,130.5 L171,130.5 Z M191,130.5 C191.276142,130.5 191.5,130.276142 191.5,130 C191.5,129.723858 191.276142,129.5 191,129.5 L181,129.5 C180.723858,129.5 180.5,129.723858 180.5,130 C180.5,130.276142 180.723858,130.5 181,130.5 L191,130.5 Z M211,130.5 C211.276142,130.5 211.5,130.276142 211.5,130 C211.5,129.723858 211.276142,129.5 211,129.5 L201,129.5 C200.723858,129.5 200.5,129.723858 200.5,130 C200.5,130.276142 200.723858,130.5 201,130.5 L211,130.5 Z M231,130.5 C231.276142,130.5 231.5,130.276142 231.5,130 C231.5,129.723858 231.276142,129.5 231,129.5 L221,129.5 C220.723858,129.5 220.5,129.723858 220.5,130 C220.5,130.276142 220.723858,130.5 221,130.5 L231,130.5 Z M251,130.5 C251.276142,130.5 251.5,130.276142 251.5,130 C251.5,129.723858 251.276142,129.5 251,129.5 L241,129.5 C240.723858,129.5 240.5,129.723858 240.5,130 C240.5,130.276142 240.723858,130.5 241,130.5 L251,130.5 Z M271,130.5 C271.276142,130.5 271.5,130.276142 271.5,130 C271.5,129.723858 271.276142,129.5 271,129.5 L261,129.5 C260.723858,129.5 260.5,129.723858 260.5,130 C260.5,130.276142 260.723858,130.5 261,130.5 L271,130.5 Z M291,130.5 C291.276142,130.5 291.5,130.276142 291.5,130 C291.5,129.723858 291.276142,129.5 291,129.5 L281,129.5 C280.723858,129.5 280.5,129.723858 280.5,130 C280.5,130.276142 280.723858,130.5 281,130.5 L291,130.5 Z M311,130.5 C311.276142,130.5 311.5,130.276142 311.5,130 C311.5,129.723858 311.276142,129.5 311,129.5 L301,129.5 C300.723858,129.5 300.5,129.723858 300.5,130 C300.5,130.276142 300.723858,130.5 301,130.5 L311,130.5 Z M331,130.5 C331.276142,130.5 331.5,130.276142 331.5,130 C331.5,129.723858 331.276142,129.5 331,129.5 L321,129.5 C320.723858,129.5 320.5,129.723858 320.5,130 C320.5,130.276142 320.723858,130.5 321,130.5 L331,130.5 Z M351,130.5 C351.276142,130.5 351.5,130.276142 351.5,130 C351.5,129.723858 351.276142,129.5 351,129.5 L341,129.5 C340.723858,129.5 340.5,129.723858 340.5,130 C340.5,130.276142 340.723858,130.5 341,130.5 L351,130.5 Z M371,130.5 C371.276142,130.5 371.5,130.276142 371.5,130 C371.5,129.723858 371.276142,129.5 371,129.5 L361,129.5 C360.723858,129.5 360.5,129.723858 360.5,130 C360.5,130.276142 360.723858,130.5 361,130.5 L371,130.5 Z M391,130.5 C391.276142,130.5 391.5,130.276142 391.5,130 C391.5,129.723858 391.276142,129.5 391,129.5 L381,129.5 C380.723858,129.5 380.5,129.723858 380.5,130 C380.5,130.276142 380.723858,130.5 381,130.5 L391,130.5 Z M411,130.5 C411.276142,130.5 411.5,130.276142 411.5,130 C411.5,129.723858 411.276142,129.5 411,129.5 L401,129.5 C400.723858,129.5 400.5,129.723858 400.5,130 C400.5,130.276142 400.723858,130.5 401,130.5 L411,130.5 Z M431,130.5 C431.276142,130.5 431.5,130.276142 431.5,130 C431.5,129.723858 431.276142,129.5 431,129.5 L421,129.5 C420.723858,129.5 420.5,129.723858 420.5,130 C420.5,130.276142 420.723858,130.5 421,130.5 L431,130.5 Z M451,130.5 C451.276142,130.5 451.5,130.276142 451.5,130 C451.5,129.723858 451.276142,129.5 451,129.5 L441,129.5 C440.723858,129.5 440.5,129.723858 440.5,130 C440.5,130.276142 440.723858,130.5 441,130.5 L451,130.5 Z M471,130.5 C471.276142,130.5 471.5,130.276142 471.5,130 C471.5,129.723858 471.276142,129.5 471,129.5 L461,129.5 C460.723858,129.5 460.5,129.723858 460.5,130 C460.5,130.276142 460.723858,130.5 461,130.5 L471,130.5 Z M491,130.5 C491.276142,130.5 491.5,130.276142 491.5,130 C491.5,129.723858 491.276142,129.5 491,129.5 L481,129.5 C480.723858,129.5 480.5,129.723858 480.5,130 C480.5,130.276142 480.723858,130.5 481,130.5 L491,130.5 Z M511,130.5 C511.276142,130.5 511.5,130.276142 511.5,130 C511.5,129.723858 511.276142,129.5 511,129.5 L501,129.5 C500.723858,129.5 500.5,129.723858 500.5,130 C500.5,130.276142 500.723858,130.5 501,130.5 L511,130.5 Z M531,130.5 C531.276142,130.5 531.5,130.276142 531.5,130 C531.5,129.723858 531.276142,129.5 531,129.5 L521,129.5 C520.723858,129.5 520.5,129.723858 520.5,130 C520.5,130.276142 520.723858,130.5 521,130.5 L531,130.5 Z M551,130.5 C551.276142,130.5 551.5,130.276142 551.5,130 C551.5,129.723858 551.276142,129.5 551,129.5 L541,129.5 C540.723858,129.5 540.5,129.723858 540.5,130 C540.5,130.276142 540.723858,130.5 541,130.5 L551,130.5 Z M571,130.5 C571.276142,130.5 571.5,130.276142 571.5,130 C571.5,129.723858 571.276142,129.5 571,129.5 L561,129.5 C560.723858,129.5 560.5,129.723858 560.5,130 C560.5,130.276142 560.723858,130.5 561,130.5 L571,130.5 Z M591,130.5 C591.276142,130.5 591.5,130.276142 591.5,130 C591.5,129.723858 591.276142,129.5 591,129.5 L581,129.5 C580.723858,129.5 580.5,129.723858 580.5,130 C580.5,130.276142 580.723858,130.5 581,130.5 L591,130.5 Z M11,176.5 C11.2761424,176.5 11.5,176.276142 11.5,176 C11.5,175.723858 11.2761424,175.5 11,175.5 L1,175.5 C0.723857625,175.5 0.5,175.723858 0.5,176 C0.5,176.276142 0.723857625,176.5 1,176.5 L11,176.5 Z M31,176.5 C31.2761424,176.5 31.5,176.276142 31.5,176 C31.5,175.723858 31.2761424,175.5 31,175.5 L21,175.5 C20.7238576,175.5 20.5,175.723858 20.5,176 C20.5,176.276142 20.7238576,176.5 21,176.5 L31,176.5 Z M51,176.5 C51.2761424,176.5 51.5,176.276142 51.5,176 C51.5,175.723858 51.2761424,175.5 51,175.5 L41,175.5 C40.7238576,175.5 40.5,175.723858 40.5,176 C40.5,176.276142 40.7238576,176.5 41,176.5 L51,176.5 Z M71,176.5 C71.2761424,176.5 71.5,176.276142 71.5,176 C71.5,175.723858 71.2761424,175.5 71,175.5 L61,175.5 C60.7238576,175.5 60.5,175.723858 60.5,176 C60.5,176.276142 60.7238576,176.5 61,176.5 L71,176.5 Z M91,176.5 C91.2761424,176.5 91.5,176.276142 91.5,176 C91.5,175.723858 91.2761424,175.5 91,175.5 L81,175.5 C80.7238576,175.5 80.5,175.723858 80.5,176 C80.5,176.276142 80.7238576,176.5 81,176.5 L91,176.5 Z M111,176.5 C111.276142,176.5 111.5,176.276142 111.5,176 C111.5,175.723858 111.276142,175.5 111,175.5 L101,175.5 C100.723858,175.5 100.5,175.723858 100.5,176 C100.5,176.276142 100.723858,176.5 101,176.5 L111,176.5 Z M131,176.5 C131.276142,176.5 131.5,176.276142 131.5,176 C131.5,175.723858 131.276142,175.5 131,175.5 L121,175.5 C120.723858,175.5 120.5,175.723858 120.5,176 C120.5,176.276142 120.723858,176.5 121,176.5 L131,176.5 Z M151,176.5 C151.276142,176.5 151.5,176.276142 151.5,176 C151.5,175.723858 151.276142,175.5 151,175.5 L141,175.5 C140.723858,175.5 140.5,175.723858 140.5,176 C140.5,176.276142 140.723858,176.5 141,176.5 L151,176.5 Z M171,176.5 C171.276142,176.5 171.5,176.276142 171.5,176 C171.5,175.723858 171.276142,175.5 171,175.5 L161,175.5 C160.723858,175.5 160.5,175.723858 160.5,176 C160.5,176.276142 160.723858,176.5 161,176.5 L171,176.5 Z M191,176.5 C191.276142,176.5 191.5,176.276142 191.5,176 C191.5,175.723858 191.276142,175.5 191,175.5 L181,175.5 C180.723858,175.5 180.5,175.723858 180.5,176 C180.5,176.276142 180.723858,176.5 181,176.5 L191,176.5 Z M211,176.5 C211.276142,176.5 211.5,176.276142 211.5,176 C211.5,175.723858 211.276142,175.5 211,175.5 L201,175.5 C200.723858,175.5 200.5,175.723858 200.5,176 C200.5,176.276142 200.723858,176.5 201,176.5 L211,176.5 Z M231,176.5 C231.276142,176.5 231.5,176.276142 231.5,176 C231.5,175.723858 231.276142,175.5 231,175.5 L221,175.5 C220.723858,175.5 220.5,175.723858 220.5,176 C220.5,176.276142 220.723858,176.5 221,176.5 L231,176.5 Z M251,176.5 C251.276142,176.5 251.5,176.276142 251.5,176 C251.5,175.723858 251.276142,175.5 251,175.5 L241,175.5 C240.723858,175.5 240.5,175.723858 240.5,176 C240.5,176.276142 240.723858,176.5 241,176.5 L251,176.5 Z M271,176.5 C271.276142,176.5 271.5,176.276142 271.5,176 C271.5,175.723858 271.276142,175.5 271,175.5 L261,175.5 C260.723858,175.5 260.5,175.723858 260.5,176 C260.5,176.276142 260.723858,176.5 261,176.5 L271,176.5 Z M291,176.5 C291.276142,176.5 291.5,176.276142 291.5,176 C291.5,175.723858 291.276142,175.5 291,175.5 L281,175.5 C280.723858,175.5 280.5,175.723858 280.5,176 C280.5,176.276142 280.723858,176.5 281,176.5 L291,176.5 Z M311,176.5 C311.276142,176.5 311.5,176.276142 311.5,176 C311.5,175.723858 311.276142,175.5 311,175.5 L301,175.5 C300.723858,175.5 300.5,175.723858 300.5,176 C300.5,176.276142 300.723858,176.5 301,176.5 L311,176.5 Z M331,176.5 C331.276142,176.5 331.5,176.276142 331.5,176 C331.5,175.723858 331.276142,175.5 331,175.5 L321,175.5 C320.723858,175.5 320.5,175.723858 320.5,176 C320.5,176.276142 320.723858,176.5 321,176.5 L331,176.5 Z M351,176.5 C351.276142,176.5 351.5,176.276142 351.5,176 C351.5,175.723858 351.276142,175.5 351,175.5 L341,175.5 C340.723858,175.5 340.5,175.723858 340.5,176 C340.5,176.276142 340.723858,176.5 341,176.5 L351,176.5 Z M371,176.5 C371.276142,176.5 371.5,176.276142 371.5,176 C371.5,175.723858 371.276142,175.5 371,175.5 L361,175.5 C360.723858,175.5 360.5,175.723858 360.5,176 C360.5,176.276142 360.723858,176.5 361,176.5 L371,176.5 Z M391,176.5 C391.276142,176.5 391.5,176.276142 391.5,176 C391.5,175.723858 391.276142,175.5 391,175.5 L381,175.5 C380.723858,175.5 380.5,175.723858 380.5,176 C380.5,176.276142 380.723858,176.5 381,176.5 L391,176.5 Z M411,176.5 C411.276142,176.5 411.5,176.276142 411.5,176 C411.5,175.723858 411.276142,175.5 411,175.5 L401,175.5 C400.723858,175.5 400.5,175.723858 400.5,176 C400.5,176.276142 400.723858,176.5 401,176.5 L411,176.5 Z M431,176.5 C431.276142,176.5 431.5,176.276142 431.5,176 C431.5,175.723858 431.276142,175.5 431,175.5 L421,175.5 C420.723858,175.5 420.5,175.723858 420.5,176 C420.5,176.276142 420.723858,176.5 421,176.5 L431,176.5 Z M451,176.5 C451.276142,176.5 451.5,176.276142 451.5,176 C451.5,175.723858 451.276142,175.5 451,175.5 L441,175.5 C440.723858,175.5 440.5,175.723858 440.5,176 C440.5,176.276142 440.723858,176.5 441,176.5 L451,176.5 Z M471,176.5 C471.276142,176.5 471.5,176.276142 471.5,176 C471.5,175.723858 471.276142,175.5 471,175.5 L461,175.5 C460.723858,175.5 460.5,175.723858 460.5,176 C460.5,176.276142 460.723858,176.5 461,176.5 L471,176.5 Z M491,176.5 C491.276142,176.5 491.5,176.276142 491.5,176 C491.5,175.723858 491.276142,175.5 491,175.5 L481,175.5 C480.723858,175.5 480.5,175.723858 480.5,176 C480.5,176.276142 480.723858,176.5 481,176.5 L491,176.5 Z M511,176.5 C511.276142,176.5 511.5,176.276142 511.5,176 C511.5,175.723858 511.276142,175.5 511,175.5 L501,175.5 C500.723858,175.5 500.5,175.723858 500.5,176 C500.5,176.276142 500.723858,176.5 501,176.5 L511,176.5 Z M531,176.5 C531.276142,176.5 531.5,176.276142 531.5,176 C531.5,175.723858 531.276142,175.5 531,175.5 L521,175.5 C520.723858,175.5 520.5,175.723858 520.5,176 C520.5,176.276142 520.723858,176.5 521,176.5 L531,176.5 Z M551,176.5 C551.276142,176.5 551.5,176.276142 551.5,176 C551.5,175.723858 551.276142,175.5 551,175.5 L541,175.5 C540.723858,175.5 540.5,175.723858 540.5,176 C540.5,176.276142 540.723858,176.5 541,176.5 L551,176.5 Z M571,176.5 C571.276142,176.5 571.5,176.276142 571.5,176 C571.5,175.723858 571.276142,175.5 571,175.5 L561,175.5 C560.723858,175.5 560.5,175.723858 560.5,176 C560.5,176.276142 560.723858,176.5 561,176.5 L571,176.5 Z M591,176.5 C591.276142,176.5 591.5,176.276142 591.5,176 C591.5,175.723858 591.276142,175.5 591,175.5 L581,175.5 C580.723858,175.5 580.5,175.723858 580.5,176 C580.5,176.276142 580.723858,176.5 581,176.5 L591,176.5 Z M11,222.5 C11.2761424,222.5 11.5,222.276142 11.5,222 C11.5,221.723858 11.2761424,221.5 11,221.5 L1,221.5 C0.723857625,221.5 0.5,221.723858 0.5,222 C0.5,222.276142 0.723857625,222.5 1,222.5 L11,222.5 Z M31,222.5 C31.2761424,222.5 31.5,222.276142 31.5,222 C31.5,221.723858 31.2761424,221.5 31,221.5 L21,221.5 C20.7238576,221.5 20.5,221.723858 20.5,222 C20.5,222.276142 20.7238576,222.5 21,222.5 L31,222.5 Z M51,222.5 C51.2761424,222.5 51.5,222.276142 51.5,222 C51.5,221.723858 51.2761424,221.5 51,221.5 L41,221.5 C40.7238576,221.5 40.5,221.723858 40.5,222 C40.5,222.276142 40.7238576,222.5 41,222.5 L51,222.5 Z M71,222.5 C71.2761424,222.5 71.5,222.276142 71.5,222 C71.5,221.723858 71.2761424,221.5 71,221.5 L61,221.5 C60.7238576,221.5 60.5,221.723858 60.5,222 C60.5,222.276142 60.7238576,222.5 61,222.5 L71,222.5 Z M91,222.5 C91.2761424,222.5 91.5,222.276142 91.5,222 C91.5,221.723858 91.2761424,221.5 91,221.5 L81,221.5 C80.7238576,221.5 80.5,221.723858 80.5,222 C80.5,222.276142 80.7238576,222.5 81,222.5 L91,222.5 Z M111,222.5 C111.276142,222.5 111.5,222.276142 111.5,222 C111.5,221.723858 111.276142,221.5 111,221.5 L101,221.5 C100.723858,221.5 100.5,221.723858 100.5,222 C100.5,222.276142 100.723858,222.5 101,222.5 L111,222.5 Z M131,222.5 C131.276142,222.5 131.5,222.276142 131.5,222 C131.5,221.723858 131.276142,221.5 131,221.5 L121,221.5 C120.723858,221.5 120.5,221.723858 120.5,222 C120.5,222.276142 120.723858,222.5 121,222.5 L131,222.5 Z M151,222.5 C151.276142,222.5 151.5,222.276142 151.5,222 C151.5,221.723858 151.276142,221.5 151,221.5 L141,221.5 C140.723858,221.5 140.5,221.723858 140.5,222 C140.5,222.276142 140.723858,222.5 141,222.5 L151,222.5 Z M171,222.5 C171.276142,222.5 171.5,222.276142 171.5,222 C171.5,221.723858 171.276142,221.5 171,221.5 L161,221.5 C160.723858,221.5 160.5,221.723858 160.5,222 C160.5,222.276142 160.723858,222.5 161,222.5 L171,222.5 Z M191,222.5 C191.276142,222.5 191.5,222.276142 191.5,222 C191.5,221.723858 191.276142,221.5 191,221.5 L181,221.5 C180.723858,221.5 180.5,221.723858 180.5,222 C180.5,222.276142 180.723858,222.5 181,222.5 L191,222.5 Z M211,222.5 C211.276142,222.5 211.5,222.276142 211.5,222 C211.5,221.723858 211.276142,221.5 211,221.5 L201,221.5 C200.723858,221.5 200.5,221.723858 200.5,222 C200.5,222.276142 200.723858,222.5 201,222.5 L211,222.5 Z M231,222.5 C231.276142,222.5 231.5,222.276142 231.5,222 C231.5,221.723858 231.276142,221.5 231,221.5 L221,221.5 C220.723858,221.5 220.5,221.723858 220.5,222 C220.5,222.276142 220.723858,222.5 221,222.5 L231,222.5 Z M251,222.5 C251.276142,222.5 251.5,222.276142 251.5,222 C251.5,221.723858 251.276142,221.5 251,221.5 L241,221.5 C240.723858,221.5 240.5,221.723858 240.5,222 C240.5,222.276142 240.723858,222.5 241,222.5 L251,222.5 Z M271,222.5 C271.276142,222.5 271.5,222.276142 271.5,222 C271.5,221.723858 271.276142,221.5 271,221.5 L261,221.5 C260.723858,221.5 260.5,221.723858 260.5,222 C260.5,222.276142 260.723858,222.5 261,222.5 L271,222.5 Z M291,222.5 C291.276142,222.5 291.5,222.276142 291.5,222 C291.5,221.723858 291.276142,221.5 291,221.5 L281,221.5 C280.723858,221.5 280.5,221.723858 280.5,222 C280.5,222.276142 280.723858,222.5 281,222.5 L291,222.5 Z M311,222.5 C311.276142,222.5 311.5,222.276142 311.5,222 C311.5,221.723858 311.276142,221.5 311,221.5 L301,221.5 C300.723858,221.5 300.5,221.723858 300.5,222 C300.5,222.276142 300.723858,222.5 301,222.5 L311,222.5 Z M331,222.5 C331.276142,222.5 331.5,222.276142 331.5,222 C331.5,221.723858 331.276142,221.5 331,221.5 L321,221.5 C320.723858,221.5 320.5,221.723858 320.5,222 C320.5,222.276142 320.723858,222.5 321,222.5 L331,222.5 Z M351,222.5 C351.276142,222.5 351.5,222.276142 351.5,222 C351.5,221.723858 351.276142,221.5 351,221.5 L341,221.5 C340.723858,221.5 340.5,221.723858 340.5,222 C340.5,222.276142 340.723858,222.5 341,222.5 L351,222.5 Z M371,222.5 C371.276142,222.5 371.5,222.276142 371.5,222 C371.5,221.723858 371.276142,221.5 371,221.5 L361,221.5 C360.723858,221.5 360.5,221.723858 360.5,222 C360.5,222.276142 360.723858,222.5 361,222.5 L371,222.5 Z M391,222.5 C391.276142,222.5 391.5,222.276142 391.5,222 C391.5,221.723858 391.276142,221.5 391,221.5 L381,221.5 C380.723858,221.5 380.5,221.723858 380.5,222 C380.5,222.276142 380.723858,222.5 381,222.5 L391,222.5 Z M411,222.5 C411.276142,222.5 411.5,222.276142 411.5,222 C411.5,221.723858 411.276142,221.5 411,221.5 L401,221.5 C400.723858,221.5 400.5,221.723858 400.5,222 C400.5,222.276142 400.723858,222.5 401,222.5 L411,222.5 Z M431,222.5 C431.276142,222.5 431.5,222.276142 431.5,222 C431.5,221.723858 431.276142,221.5 431,221.5 L421,221.5 C420.723858,221.5 420.5,221.723858 420.5,222 C420.5,222.276142 420.723858,222.5 421,222.5 L431,222.5 Z M451,222.5 C451.276142,222.5 451.5,222.276142 451.5,222 C451.5,221.723858 451.276142,221.5 451,221.5 L441,221.5 C440.723858,221.5 440.5,221.723858 440.5,222 C440.5,222.276142 440.723858,222.5 441,222.5 L451,222.5 Z M471,222.5 C471.276142,222.5 471.5,222.276142 471.5,222 C471.5,221.723858 471.276142,221.5 471,221.5 L461,221.5 C460.723858,221.5 460.5,221.723858 460.5,222 C460.5,222.276142 460.723858,222.5 461,222.5 L471,222.5 Z M491,222.5 C491.276142,222.5 491.5,222.276142 491.5,222 C491.5,221.723858 491.276142,221.5 491,221.5 L481,221.5 C480.723858,221.5 480.5,221.723858 480.5,222 C480.5,222.276142 480.723858,222.5 481,222.5 L491,222.5 Z M511,222.5 C511.276142,222.5 511.5,222.276142 511.5,222 C511.5,221.723858 511.276142,221.5 511,221.5 L501,221.5 C500.723858,221.5 500.5,221.723858 500.5,222 C500.5,222.276142 500.723858,222.5 501,222.5 L511,222.5 Z M531,222.5 C531.276142,222.5 531.5,222.276142 531.5,222 C531.5,221.723858 531.276142,221.5 531,221.5 L521,221.5 C520.723858,221.5 520.5,221.723858 520.5,222 C520.5,222.276142 520.723858,222.5 521,222.5 L531,222.5 Z M551,222.5 C551.276142,222.5 551.5,222.276142 551.5,222 C551.5,221.723858 551.276142,221.5 551,221.5 L541,221.5 C540.723858,221.5 540.5,221.723858 540.5,222 C540.5,222.276142 540.723858,222.5 541,222.5 L551,222.5 Z M571,222.5 C571.276142,222.5 571.5,222.276142 571.5,222 C571.5,221.723858 571.276142,221.5 571,221.5 L561,221.5 C560.723858,221.5 560.5,221.723858 560.5,222 C560.5,222.276142 560.723858,222.5 561,222.5 L571,222.5 Z M591,222.5 C591.276142,222.5 591.5,222.276142 591.5,222 C591.5,221.723858 591.276142,221.5 591,221.5 L581,221.5 C580.723858,221.5 580.5,221.723858 580.5,222 C580.5,222.276142 580.723858,222.5 581,222.5 L591,222.5 Z" id="Lines" fill="url(#linearGradient-3)" opacity="0.200000003"></path>
                </g>
            </g>
        </g>
    </g>
</svg>